<?xml version="1.0" encoding="UTF-8"?>
<svg version="1.1" xmlns="http://www.w3.org/2000/svg" width="512" height="512">
<path d="M0 0 C8.82652182 5.74793649 15.5469145 13.054701 21.74549866 21.46655273 C33.9477474 37.84769414 48.09088586 56.57760634 69.51464844 59.77294922 C88.43151083 62.0892353 107.99907516 61.00912943 126.93478394 59.31822205 C135.69785897 58.56478472 142.61089036 58.34888101 150.36328125 63.265625 C155.84769298 68.29202376 159.85836481 73.06497594 160.875 80.6875 C160.73720419 83.02403998 160.52108091 85.35644389 160.25512695 87.68188477 C154.65357281 132.20042644 154.65357281 132.20042644 169.99635315 172.36222839 C180.29398276 184.51325306 192.59720236 195.17344184 205.29330444 204.7570343 C212.28441574 210.07094821 218.03489186 215.16717559 220.875 223.6875 C221.04745295 225.91242577 221.14167141 228.14387148 221.1875 230.375 C221.22488281 231.55449219 221.26226562 232.73398437 221.30078125 233.94921875 C220.09375657 244.54667395 212.16291562 250.90800115 204.9609375 257.95703125 C203.7822244 259.125728 202.60447456 260.29539697 201.42764282 261.46598816 C198.34308825 264.52971057 195.24714032 267.58164394 192.14813232 270.6307373 C187.17849759 275.52478642 182.2276729 280.43788481 177.27464676 285.34873009 C175.54604594 287.059654 173.8132933 288.76627763 172.0796814 290.47212219 C171.02100759 291.51757882 169.96238076 292.56308303 168.90380859 293.60864258 C167.5162587 294.97476433 167.5162587 294.97476433 166.10067749 296.3684845 C162.05363541 300.58524698 161.58342206 303.43029441 161.60375977 309.02954102 C161.59853302 309.77469467 161.59330627 310.51984833 161.58792114 311.2875824 C161.57767895 312.90647335 161.57190035 314.52539725 161.57003975 316.14431953 C161.56637396 318.71403925 161.54963801 321.28337371 161.52928162 323.85301208 C161.47391511 331.15950313 161.4433076 338.4660527 161.41870117 345.77270508 C161.40273749 350.24372201 161.37241811 354.71446988 161.33393669 359.1853466 C161.32235425 360.88240619 161.31635694 362.57951413 161.31625557 364.27661324 C161.3144013 387.07673282 161.3144013 387.07673282 152.7734375 395.99609375 C146.21172337 401.84223 139.77198794 402.85176815 131.21411133 402.75 C129.64948165 402.74055868 128.08485039 402.73137465 126.5202179 402.72241211 C125.28336463 402.71297073 125.28336463 402.71297073 124.02152443 402.70333862 C119.62829104 402.67620548 115.23509066 402.68625131 110.84179688 402.69140625 C105.26317303 402.69760477 99.68556219 402.6923567 94.10717773 402.63623047 C89.58802052 402.5917528 85.07071954 402.59152809 80.55145836 402.62036133 C78.83757624 402.62342564 77.12358482 402.61070025 75.40995216 402.58129883 C64.11074354 402.28277495 64.11074354 402.28277495 54.43310547 407.56298828 C52.88179235 409.24220087 51.36304058 410.95197053 49.875 412.6875 C48.10533439 414.4602714 46.32534087 416.22277935 44.53637695 417.97607422 C43.13223111 419.40009162 41.72815021 420.82417842 40.32744789 422.2515831 C38.82039746 423.78584562 37.30853098 425.31521367 35.79521179 426.84329224 C31.50081932 431.17990318 27.20965445 435.51958355 22.93432617 439.875 C20.29902858 442.55896364 17.65393876 445.23293467 15.0023098 447.90076065 C14.00235932 448.91055081 13.00605993 449.92397117 12.01366615 450.94118881 C1.19846738 462.02131637 1.19846738 462.02131637 -7.58984375 463.12109375 C-20.87773269 463.13604076 -26.82541441 458.93790682 -36.125 449.6875 C-38.27259837 447.08371415 -40.26644757 444.40794162 -42.25411987 441.68058777 C-54.6778713 424.79009227 -69.97796239 404.8912627 -91.86816406 401.49853516 C-110.75059743 399.09618576 -130.3352804 400.22985766 -149.23587036 402.00569153 C-156.7339034 402.6862669 -163.17836372 403.15460849 -170.125 399.6875 C-171.176875 399.171875 -172.22875 398.65625 -173.3125 398.125 C-178.08289155 393.99066066 -182.05757261 388.01052357 -183.125 381.6875 C-182.97913681 379.3634812 -182.75580802 377.04399853 -182.48925781 374.73071289 C-176.77922936 329.54994434 -176.77922936 329.54994434 -192.40444946 288.81632996 C-202.9115802 276.46161897 -215.44522011 265.59595627 -228.39085388 255.85816956 C-236.32516494 249.85059418 -242.59969621 243.77476654 -244.125 233.5625 C-244.46720416 224.78838546 -241.69754215 218.42892218 -236.125 211.6875 C-232.85298673 208.78106428 -229.38831412 206.16974915 -225.89168358 203.5406971 C-206.98603696 189.07935469 -184.72429438 171.81863489 -181.28884983 146.92177677 C-179.31210972 128.6898482 -180.39668565 109.88276074 -182.40327454 91.68919373 C-183.41453746 82.0810469 -183.15089351 74.71986689 -176.875 66.875 C-170.8810573 62.10709103 -165.82496433 58.39999795 -157.88122559 58.88592529 C-156.64876099 59.03023987 -155.41629639 59.17455444 -154.14648438 59.32324219 C-109.491662 64.96801704 -109.491662 64.96801704 -69.26638794 49.38226318 C-56.85203316 38.82605646 -45.94784355 26.26145929 -36.09461975 13.30834961 C-27.35449938 1.84507593 -15.11804532 -6.58418042 0 0 Z M-20.71801758 20.56518555 C-21.22966965 21.08384689 -21.74132172 21.60250824 -22.26847839 22.1368866 C-23.37361966 23.26191622 -24.47056086 24.39504772 -25.56003761 25.53525352 C-27.29076815 27.34644292 -29.04197961 29.13540912 -30.79972839 30.92036438 C-33.89976693 34.07542771 -36.98039779 37.24867948 -40.05511475 40.42840576 C-44.96175287 45.50241146 -49.88354414 50.56103498 -54.83096886 55.59528542 C-56.54493212 57.34876429 -58.2419755 59.11746466 -59.93843079 60.88786316 C-68.42082682 69.64169878 -74.92914031 74.89809544 -87.5246582 75.29931641 C-90.82576414 75.34093523 -94.12463426 75.31539858 -97.42578125 75.2890625 C-99.19314041 75.29457077 -100.96049315 75.30270265 -102.72782898 75.31332397 C-107.35375704 75.33609253 -111.97921024 75.33203109 -116.60516357 75.31951904 C-124.02536832 75.30113043 -131.44529956 75.3111854 -138.86543846 75.34537888 C-141.44975745 75.35147168 -144.03348004 75.33824388 -146.61775208 75.32339478 C-148.20260776 75.32634256 -149.78746234 75.32999712 -151.37231445 75.33447266 C-152.44387283 75.32053719 -152.44387283 75.32053719 -153.53707886 75.30632019 C-157.90127075 75.34115448 -160.70453205 75.92624454 -164.125 78.6875 C-166.76664515 82.16899787 -166.39773551 86.1369401 -166.36450195 90.32666016 C-166.36651611 91.09146698 -166.36853027 91.8562738 -166.37060547 92.64425659 C-166.37414673 94.3029812 -166.3733891 95.96171932 -166.36882973 97.62044144 C-166.36322443 100.25325229 -166.37241682 102.88562449 -166.3860321 105.5184021 C-166.42309717 113.00333541 -166.44174371 120.48812197 -166.43041992 127.97314453 C-166.42453886 132.55564993 -166.44297809 137.13754098 -166.47630882 141.71992111 C-166.48421997 143.45885881 -166.48304448 145.19786425 -166.47228432 146.93678665 C-166.39216925 160.4733787 -167.91984437 168.70939374 -177.6496582 178.65283203 C-179.30404734 180.28383364 -180.97445784 181.89601776 -182.65423012 183.50085831 C-184.46168214 185.229651 -186.25088467 186.97561899 -188.03642273 188.72702026 C-193.10962818 193.69698985 -198.21404065 198.63440318 -203.32836914 203.56201172 C-206.46973147 206.59105465 -209.59125747 209.63943755 -212.70186424 212.70003891 C-213.88596291 213.85686631 -215.07772187 215.00590806 -216.27724648 216.14673233 C-217.9525291 217.74020661 -219.60161092 219.35703048 -221.24731445 220.98095703 C-222.66364922 222.34802292 -222.66364922 222.34802292 -224.1085968 223.7427063 C-226.37029732 227.04573689 -226.8679795 228.82490012 -226.60056591 232.74687195 C-225.77088063 236.13254467 -223.60740063 238.21183396 -221.13964844 240.50170898 C-220.60962723 241.02486694 -220.07960602 241.5480249 -219.53352356 242.08703613 C-217.78467086 243.80493681 -216.00981432 245.49322403 -214.234375 247.18359375 C-213.00874642 248.38157061 -211.78524521 249.58172746 -210.56378174 250.78395081 C-207.34636851 253.94256643 -204.10791548 257.0785853 -200.86224365 260.20812988 C-195.67820582 265.20858727 -190.51556812 270.23047006 -185.37451935 275.27510262 C-183.58195998 277.02435638 -181.77384517 278.75627685 -179.96380615 280.4874115 C-171.27771528 288.8844106 -166.98871511 294.5906231 -166.62670898 306.97363281 C-166.59829875 309.41693964 -166.59669837 311.85847813 -166.60857964 314.30191803 C-166.62130322 316.9339557 -166.60983749 319.56495916 -166.59254456 322.19696045 C-166.56595627 326.83103646 -166.56024504 331.46485498 -166.56164551 336.09899902 C-166.56388225 343.52914627 -166.54973598 350.95897697 -166.50605965 358.38899994 C-166.49623763 360.97770473 -166.50492626 363.56590778 -166.51475525 366.15460205 C-166.5086113 367.74271981 -166.50169965 369.33083484 -166.49389648 370.91894531 C-166.50161575 371.63488861 -166.50933502 372.35083191 -166.51728821 373.08847046 C-166.47306504 377.4535148 -165.88685709 380.2659081 -163.125 383.6875 C-159.64350213 386.32914515 -155.6755599 385.96023551 -151.48583984 385.92700195 C-150.33862961 385.93002319 -150.33862961 385.93002319 -149.16824341 385.93310547 C-147.5095188 385.93664673 -145.85078068 385.9358891 -144.19205856 385.93132973 C-141.55924771 385.92572443 -138.92687551 385.93491682 -136.2940979 385.9485321 C-128.80916459 385.98559717 -121.32437803 386.00424371 -113.83935547 385.99291992 C-109.25685007 385.98703886 -104.67495902 386.00547809 -100.09257889 386.03880882 C-98.35364119 386.04671997 -96.61463575 386.04554448 -94.87571335 386.03478432 C-81.37771709 385.95489767 -73.16033433 387.52394989 -63.15625 397.10449219 C-60.95438782 399.29059873 -58.78993636 401.51179061 -56.625 403.734375 C-55.45698993 404.91427495 -54.28777869 406.09298692 -53.11743164 407.27056885 C-50.06256416 410.35001085 -47.0226155 413.4437503 -43.98614502 416.5413208 C-39.68583955 420.92257519 -35.36510116 425.28369935 -31.046875 429.64727783 C-28.75132003 431.96706069 -26.46138604 434.2921799 -24.17578125 436.62176514 C-23.13673255 437.67721899 -22.09767077 438.73265997 -21.05859375 439.78808594 C-20.15165771 440.71232361 -19.24472168 441.63656128 -18.31030273 442.58880615 C-15.87831177 444.92441137 -14.78420607 445.56193694 -11.5 446.1875 C-3.29748642 444.9723128 3.56415618 435.07623443 9.11939621 429.39600754 C11.1428599 427.32973186 13.17631602 425.27340231 15.20908546 423.21628761 C18.97417222 419.40585477 22.73514011 415.59156236 26.47949219 411.76074219 C29.10367933 409.07673202 31.74028925 406.40547348 34.38518143 403.74187088 C35.38078727 402.73463473 36.37187865 401.72291271 37.35801315 400.70640182 C46.02740412 391.77663893 52.5337593 386.46045243 65.2746582 386.07568359 C68.57576951 386.03466433 71.87463411 386.05960142 75.17578125 386.0859375 C76.94314041 386.08042923 78.71049315 386.07229735 80.47782898 386.06167603 C85.10375704 386.03890747 89.72921024 386.04296891 94.35516357 386.05548096 C101.77536832 386.07386957 109.19529956 386.0638146 116.61543846 386.02962112 C119.19975745 386.02352832 121.78348004 386.03675612 124.36775208 386.05160522 C125.95260776 386.04865744 127.53746234 386.04500288 129.12231445 386.04052734 C129.83668671 386.04981766 130.55105896 386.05910797 131.28707886 386.06867981 C135.65127075 386.03384552 138.45453205 385.44875546 141.875 382.6875 C144.51664515 379.20600213 144.14773551 375.2380599 144.11450195 371.04833984 C144.11651611 370.28353302 144.11853027 369.5187262 144.12060547 368.73074341 C144.12414673 367.0720188 144.1233891 365.41328068 144.11882973 363.75455856 C144.11322443 361.12174771 144.12241682 358.48937551 144.1360321 355.8565979 C144.17309717 348.37166459 144.19174371 340.88687803 144.18041992 333.40185547 C144.17453886 328.81935007 144.19297809 324.23745902 144.22630882 319.65507889 C144.23421997 317.91614119 144.23304448 316.17713575 144.22228432 314.43821335 C144.14239767 300.94021709 145.71144989 292.72283433 155.29199219 282.71875 C157.47809873 280.51688782 159.69929061 278.35243636 161.921875 276.1875 C163.10177495 275.01948993 164.28048692 273.85027869 165.45806885 272.67993164 C168.53751085 269.62506416 171.6312503 266.5851155 174.7288208 263.54864502 C179.11007519 259.24833955 183.47119935 254.92760116 187.83477783 250.609375 C190.15456069 248.31382003 192.4796799 246.02388604 194.80926514 243.73828125 C195.86471899 242.69923255 196.92015997 241.66017077 197.97558594 240.62109375 C198.89982361 239.71415771 199.82406128 238.80722168 200.77630615 237.87280273 C203.41158054 235.12877586 203.81279204 234.23106607 204.24908447 230.41879272 C203.79045692 225.84422791 202.10089926 223.98932494 198.88964844 220.98681641 C198.35962723 220.46380447 197.82960602 219.94079254 197.28352356 219.40193176 C196.1339383 218.27223613 194.97624989 217.15073977 193.81148529 216.0367012 C191.96279259 214.26841884 190.13626178 212.47967932 188.31378174 210.68441772 C185.09422689 207.51988554 181.85646296 204.37475724 178.61224365 201.23553467 C173.43127272 196.22196388 168.26578525 191.19311998 163.12451935 186.13883591 C161.33163051 184.38555029 159.52353993 182.64910713 157.71380615 180.91323853 C149.03917137 172.50225226 144.73874923 166.78596154 144.37670898 154.40136719 C144.34829885 151.95806036 144.34669837 149.51652187 144.35857964 147.07308197 C144.37130322 144.4410443 144.35983749 141.81004084 144.34254456 139.17803955 C144.31595627 134.54396354 144.31024504 129.91014502 144.31164551 125.27600098 C144.31388225 117.84585373 144.29973598 110.41602303 144.25605965 102.98600006 C144.24623763 100.39729527 144.25492626 97.80909222 144.26475525 95.22039795 C144.2586113 93.63228019 144.25169965 92.04416516 144.24389648 90.45605469 C144.25161575 89.74011139 144.25933502 89.02416809 144.26728821 88.28652954 C144.22306504 83.9214852 143.63685709 81.1090919 140.875 77.6875 C137.39350213 75.04585485 133.4255599 75.41476449 129.23583984 75.44799805 C128.08862961 75.44497681 128.08862961 75.44497681 126.91824341 75.44189453 C125.2595188 75.43835327 123.60078068 75.4391109 121.94205856 75.44367027 C119.30924771 75.44927557 116.67687551 75.44008318 114.0440979 75.4264679 C106.55916459 75.38940283 99.07437803 75.37075629 91.58935547 75.38208008 C87.00685007 75.38796114 82.42495902 75.36952191 77.84257889 75.33619118 C76.10364119 75.32828003 74.36463575 75.32945552 72.62571335 75.34021568 C59.12771709 75.42010233 50.91033433 73.85105011 40.90625 64.27050781 C38.70438782 62.08440127 36.53993636 59.86320939 34.375 57.640625 C33.20698993 56.46072505 32.03777869 55.28201308 30.86743164 54.10443115 C27.81256416 51.02498915 24.7726155 47.9312497 21.73614502 44.8336792 C17.43583955 40.45242481 13.11510116 36.09130065 8.796875 31.72772217 C6.50132003 29.40793931 4.21138604 27.0828201 1.92578125 24.75323486 C0.88673255 23.69778101 -0.15232923 22.64234003 -1.19140625 21.58691406 C-2.09834229 20.66267639 -3.00527832 19.73843872 -3.93969727 18.78619385 C-6.68812686 16.14669124 -7.58013651 15.74860896 -11.4004364 15.32014465 C-16.15421111 15.78901155 -17.42752673 17.16439203 -20.71801758 20.56518555 Z " fill="#000000" transform="translate(267.125,25.3125)"/>
<path d="M0 0 C0.82242188 -0.02835937 1.64484375 -0.05671875 2.4921875 -0.0859375 C9.42391701 1.12762939 12.90240325 6.377281 16.92927551 11.66297913 C37.36538725 38.52007879 37.36538725 38.52007879 67.03725815 51.86163044 C82.5511674 53.61199517 98.50944777 52.65486997 114.00065613 51.03135681 C120.97738462 50.32268924 125.85649994 50.02213574 132.125 53.375 C135.52772665 57.47572186 137.27327823 60.79851185 136.96694946 66.12129211 C136.84073212 67.17866074 136.71451477 68.23602936 136.58447266 69.32543945 C131.7623437 107.99603203 131.7623437 107.99603203 145.559021 142.73710632 C156.48900616 155.53500511 169.68023959 166.49163459 183.10691833 176.56726074 C185.85714663 179.0308358 186.94551903 181.11028527 187.4609375 184.7421875 C187.47382813 185.56976563 187.48671875 186.39734375 187.5 187.25 C187.52835937 188.07242188 187.55671875 188.89484375 187.5859375 189.7421875 C186.37237061 196.67391701 181.122719 200.15240325 175.83702087 204.17927551 C148.97992121 224.61538725 148.97992121 224.61538725 135.63836956 254.28725815 C133.88800483 269.8011674 134.84513003 285.75944777 136.46864319 301.25065613 C137.17731076 308.22738462 137.47786426 313.10649994 134.125 319.375 C130.02427814 322.77772665 126.70148815 324.52327823 121.37870789 324.21694946 C120.32133926 324.09073212 119.26397064 323.96451477 118.17456055 323.83447266 C79.50396797 319.0123437 79.50396797 319.0123437 44.76289368 332.809021 C31.96499489 343.73900616 21.00836541 356.93023959 10.93273926 370.35691833 C8.4691642 373.10714663 6.38971473 374.19551903 2.7578125 374.7109375 C1.93023437 374.72382813 1.10265625 374.73671875 0.25 374.75 C-0.57242188 374.77835937 -1.39484375 374.80671875 -2.2421875 374.8359375 C-9.17391701 373.62237061 -12.65240325 368.372719 -16.67927551 363.08702087 C-37.11538725 336.22992121 -37.11538725 336.22992121 -66.78725815 322.88836956 C-82.3011674 321.13800483 -98.25944777 322.09513003 -113.75065613 323.71864319 C-120.72738462 324.42731076 -125.60649994 324.72786426 -131.875 321.375 C-135.27772665 317.27427814 -137.02327823 313.95148815 -136.71694946 308.62870789 C-136.59073212 307.57133926 -136.46451477 306.51397064 -136.33447266 305.42456055 C-131.5123437 266.75396797 -131.5123437 266.75396797 -145.309021 232.01289368 C-156.23900616 219.21499489 -169.43023959 208.25836541 -182.85691833 198.18273926 C-185.60714663 195.7191642 -186.69551903 193.63971473 -187.2109375 190.0078125 C-187.22382813 189.18023437 -187.23671875 188.35265625 -187.25 187.5 C-187.27835937 186.67757812 -187.30671875 185.85515625 -187.3359375 185.0078125 C-186.12237061 178.07608299 -180.872719 174.59759675 -175.58702087 170.57072449 C-148.72992121 150.13461275 -148.72992121 150.13461275 -135.38836956 120.46274185 C-133.63800483 104.9488326 -134.59513003 88.99055223 -136.21864319 73.49934387 C-136.92731076 66.52261538 -137.22786426 61.64350006 -133.875 55.375 C-129.77427814 51.97227335 -126.45148815 50.22672177 -121.12870789 50.53305054 C-120.07133926 50.65926788 -119.01397064 50.78548523 -117.92456055 50.91552734 C-79.25396797 55.7376563 -79.25396797 55.7376563 -44.51289368 41.940979 C-31.71499489 31.01099384 -20.75836541 17.81976041 -10.68273926 4.39308167 C-7.53729343 0.88164243 -4.6230824 0.07201063 0 0 Z M-2.70758057 20.98052979 C-3.81960846 22.10826813 -3.81960846 22.10826813 -4.95410156 23.25878906 C-5.79547668 24.10677063 -6.63685181 24.9547522 -7.50372314 25.82843018 C-8.87086456 27.22046661 -8.87086456 27.22046661 -10.265625 28.640625 C-11.21188033 29.59569114 -12.15872726 30.55017147 -13.10614014 31.50408936 C-16.62669881 35.0514176 -20.13647588 38.60935276 -23.64642334 42.16717529 C-26.60625602 45.16661716 -29.5702418 48.16183759 -32.53978729 51.15166473 C-33.92750718 52.55226933 -35.30906169 53.95897399 -36.69049072 55.36578369 C-37.54447449 56.2263739 -38.39845825 57.08696411 -39.27832031 57.97363281 C-40.02285461 58.72864075 -40.76738892 59.48364868 -41.53448486 60.26153564 C-46.60882986 64.84362405 -50.06393874 66.87094902 -56.98193359 66.92089844 C-57.66555969 66.93123611 -58.34918579 66.94157379 -59.05352783 66.95222473 C-61.29374195 66.98151957 -63.53304739 66.98314896 -65.7734375 66.984375 C-67.33429676 66.99936579 -68.89514022 67.01609483 -70.45596313 67.03448486 C-74.54942578 67.07807027 -78.64267447 67.0981377 -82.73632812 67.11322021 C-86.91939905 67.13282328 -91.10224 67.17478961 -95.28515625 67.21484375 C-103.4817105 67.29005028 -111.67817421 67.34039932 -119.875 67.375 C-119.87047569 68.66046974 -119.87047569 68.66046974 -119.86585999 69.97190857 C-119.84354516 78.07803031 -119.85493258 86.18327118 -119.90346622 94.28929043 C-119.92724451 98.45605101 -119.93833308 102.62201455 -119.91967773 106.78881836 C-119.90212737 110.81586677 -119.91888159 114.84148883 -119.95867729 118.86836433 C-119.96791774 120.39878955 -119.96513282 121.92933965 -119.94969368 123.45971489 C-119.87556377 131.60357255 -119.95252339 138.12163338 -125.7646637 144.34361267 C-126.46107468 145.01397049 -127.15748566 145.68432831 -127.875 146.375 C-128.59272079 147.13200699 -129.31044159 147.88901398 -130.0499115 148.66896057 C-132.42780819 151.15892407 -134.85903754 153.58449435 -137.30859375 156.00390625 C-138.18653091 156.87901352 -139.06446808 157.75412079 -139.9690094 158.65574646 C-142.74547053 161.42110589 -145.52883996 164.17938918 -148.3125 166.9375 C-150.20871594 168.82253169 -152.10332999 170.7091637 -153.99804688 172.59570312 C-158.61841372 177.19414254 -163.24445702 181.78680911 -167.875 186.375 C-166.41445961 189.74756351 -164.55731309 191.92639429 -161.94775391 194.49755859 C-161.1399649 195.29874115 -160.3321759 196.09992371 -159.49990845 196.92538452 C-158.62595428 197.782742 -157.75200012 198.64009949 -156.8515625 199.5234375 C-155.50498062 200.85865952 -155.50498062 200.85865952 -154.13119507 202.22085571 C-150.77329271 205.55017614 -147.40659447 208.87048897 -144.03912354 212.19012451 C-140.7418651 215.44146667 -137.45225691 218.70042354 -134.1640625 221.9609375 C-133.2941568 222.81424652 -132.4242511 223.66755554 -131.52798462 224.54672241 C-130.7138913 225.35420929 -129.89979797 226.16169617 -129.06103516 226.99365234 C-127.99086655 228.0481105 -127.99086655 228.0481105 -126.89907837 229.12387085 C-122.36395487 234.16772135 -120.37863199 237.621969 -120.32910156 244.48193359 C-120.31876389 245.16555969 -120.30842621 245.84918579 -120.29777527 246.55352783 C-120.26848043 248.79374195 -120.26685104 251.03304739 -120.265625 253.2734375 C-120.25063421 254.83429676 -120.23390517 256.39514022 -120.21551514 257.95596313 C-120.17192973 262.04942578 -120.1518623 266.14267447 -120.13677979 270.23632812 C-120.11717672 274.41939905 -120.07521039 278.60224 -120.03515625 282.78515625 C-119.95994972 290.9817105 -119.90960068 299.17817421 -119.875 307.375 C-119.02610703 307.37864563 -118.17721405 307.38229126 -117.30259705 307.38604736 C-109.28424696 307.42398755 -101.26630111 307.48090847 -93.24823666 307.55890274 C-89.1264943 307.59833341 -85.00496417 307.63054329 -80.88305664 307.64599609 C-76.90165613 307.66119208 -72.92083923 307.69568882 -68.93969917 307.74330902 C-67.42439421 307.75809269 -65.90900591 307.76603928 -64.39362907 307.76688385 C-51.02464004 307.78182216 -45.91406774 309.99357018 -36.52589417 319.38421631 C-35.1692289 320.76410736 -35.1692289 320.76410736 -33.78515625 322.171875 C-32.83175063 323.13088561 -31.87767325 324.08922881 -30.92295837 325.04693604 C-28.42897436 327.55229779 -25.94413776 330.06653965 -23.46118164 332.58282471 C-20.91910161 335.15575918 -18.36835828 337.72007413 -15.81835938 340.28515625 C-10.82879086 345.30676386 -5.84884764 350.33781656 -0.875 355.375 C2.49710402 353.91548942 4.66682178 352.06216539 7.23168945 349.44775391 C8.02964432 348.6399649 8.82759918 347.8321759 9.6497345 346.99990845 C10.50395493 346.12595428 11.35817535 345.25200012 12.23828125 344.3515625 C14.06172627 342.50769116 15.88529795 340.66394507 17.70898438 338.8203125 C20.57615579 335.9117809 23.43884407 332.99886349 26.29956055 330.08398438 C29.06287486 327.26948187 31.83829279 324.46705547 34.61328125 321.6640625 C35.46142899 320.7941568 36.30957672 319.9242511 37.1834259 319.02798462 C45.65585792 310.48543644 50.19390577 307.8756733 62.43821716 307.76934814 C63.92625895 307.76768543 65.41430127 307.76645433 66.90234375 307.765625 C68.43935375 307.75062957 69.97634772 307.73389956 71.51332092 307.71551514 C75.53936539 307.67198174 79.56519254 307.65187393 83.59143066 307.63677979 C87.70756811 307.61715783 91.82347259 307.5751937 95.93945312 307.53515625 C104.00124088 307.46000616 112.06293677 307.40962309 120.125 307.375 C120.1219838 306.51802017 120.11896759 305.66104034 120.11585999 304.77809143 C120.09354516 296.67196969 120.10493258 288.56672882 120.15346622 280.46070957 C120.17724451 276.29394899 120.18833308 272.12798545 120.16967773 267.96118164 C120.15212737 263.93413323 120.16888159 259.90851117 120.20867729 255.88163567 C120.21791774 254.35121045 120.21513282 252.82066035 120.19969368 251.29028511 C120.12556377 243.14642745 120.20252339 236.62836662 126.0146637 230.40638733 C126.71107468 229.73602951 127.40748566 229.06567169 128.125 228.375 C128.84272079 227.61799301 129.56044159 226.86098602 130.2999115 226.08103943 C132.67780819 223.59107593 135.10903754 221.16550565 137.55859375 218.74609375 C138.43653091 217.87098648 139.31446808 216.99587921 140.2190094 216.09425354 C142.99547053 213.32889411 145.77883996 210.57061082 148.5625 207.8125 C150.45871594 205.92746831 152.35332999 204.0408363 154.24804688 202.15429688 C158.86841372 197.55585746 163.49445702 192.96319089 168.125 188.375 C166.66445961 185.00243649 164.80731309 182.82360571 162.19775391 180.25244141 C161.3899649 179.45125885 160.5821759 178.65007629 159.74990845 177.82461548 C158.87595428 176.967258 158.00200012 176.10990051 157.1015625 175.2265625 C156.20384125 174.33641449 155.30612 173.44626648 154.38119507 172.52914429 C151.02329271 169.19982386 147.65659447 165.87951103 144.28912354 162.55987549 C140.9918651 159.30853333 137.70225691 156.04957646 134.4140625 152.7890625 C133.5441568 151.93575348 132.6742511 151.08244446 131.77798462 150.20327759 C130.9638913 149.39579071 130.14979797 148.58830383 129.31103516 147.75634766 C128.59758942 147.05337555 127.88414368 146.35040344 127.14907837 145.62612915 C122.61395487 140.58227865 120.62863199 137.128031 120.57910156 130.26806641 C120.56876389 129.58444031 120.55842621 128.90081421 120.54777527 128.19647217 C120.51848043 125.95625805 120.51685104 123.71695261 120.515625 121.4765625 C120.50063421 119.91570324 120.48390517 118.35485978 120.46551514 116.79403687 C120.42192973 112.70057422 120.4018623 108.60732553 120.38677979 104.51367188 C120.36717672 100.33060095 120.32521039 96.14776 120.28515625 91.96484375 C120.20994972 83.7682895 120.15960068 75.57182579 120.125 67.375 C119.26802017 67.3780162 118.41104034 67.38103241 117.52809143 67.38414001 C109.42196969 67.40645484 101.31672882 67.39506742 93.21070957 67.34653378 C89.04394899 67.32275549 84.87798545 67.31166692 80.71118164 67.33032227 C76.68413323 67.34787263 72.65851117 67.33111841 68.63163567 67.29132271 C67.10121045 67.28208226 65.57066035 67.28486718 64.04028511 67.30030632 C55.89648752 67.37443568 49.37428683 67.29765529 43.15193176 61.4853363 C42.48304428 60.78892532 41.8141568 60.09251434 41.125 59.375 C40.37252487 58.65727921 39.62004974 57.93955841 38.84477234 57.2000885 C36.37341124 54.82211417 33.96712711 52.39058583 31.56640625 49.94140625 C30.26086037 48.6245005 30.26086037 48.6245005 28.92893982 47.2809906 C26.17685383 44.50466138 23.43140721 41.72191124 20.6875 38.9375 C17.0489772 35.24532331 13.40331946 31.5603201 9.75390625 27.87890625 C8.91751114 27.02591446 8.08111603 26.17292267 7.21937561 25.29408264 C6.44774582 24.51584641 5.67611603 23.73761017 4.88110352 22.93579102 C3.86259056 21.90156761 3.86259056 21.90156761 2.82350159 20.84645081 C0.39374233 18.74149474 -0.30309185 18.87394941 -2.70758057 20.98052979 Z " fill="#000000" transform="translate(255.875,68.625)"/>
<path d="M0 0 C2.09570312 1.40673828 2.09570312 1.40673828 4 4 C4.60562496 7.30009598 4.55711853 10.57034189 4.5390625 13.91796875 C4.55085541 14.88978592 4.56264832 15.86160309 4.57479858 16.86286926 C4.61009073 19.97124144 4.61922515 23.0789439 4.625 26.1875 C4.64140675 29.27800032 4.66363551 32.36820342 4.69662476 35.45857239 C4.71605847 37.37962745 4.72561125 39.30081736 4.72354126 41.2219696 C4.79778763 50.68924103 6.03136432 59.36887956 12.46484375 66.66015625 C20.00188771 73.87798423 29.51049115 74.44754032 39.4765625 74.29296875 C40.52782318 74.28872391 41.57908386 74.28447906 42.66220093 74.28010559 C45.98340683 74.26346139 49.30398094 74.22583614 52.625 74.1875 C54.89191825 74.17243473 57.15884612 74.15874957 59.42578125 74.14648438 C64.95073236 74.11360482 70.47532102 74.06355009 76 74 C74.73526333 72.70540045 73.46619468 71.41503201 72.1953125 70.12646484 C71.48906738 69.40743988 70.78282227 68.68841492 70.05517578 67.94760132 C60.72867914 59.10928329 48.54783845 57.80976968 36.390625 57.5390625 C32.49035883 56.9189741 31.31913886 56.13534065 29 53 C28 49.5625 28 49.5625 28 46 C29.76641172 43.19810554 31.03049822 41.48475089 34 40 C52.15686102 38.73565237 68.73338441 42.80702058 82.82177734 54.91064453 C90.90098646 62.20250538 99.75416946 72.05783031 101.5 83.1875 C100.8624771 86.77356632 99.55611265 88.44388735 97 91 C93.67199126 92.10933625 91.17409155 92.13367594 87.66772461 92.14526367 C86.35883774 92.15164352 85.04995087 92.15802338 83.70140076 92.16459656 C82.26838213 92.16612616 80.83536301 92.16723963 79.40234375 92.16796875 C77.92843087 92.17118395 76.4545183 92.17454823 74.98060608 92.17805481 C71.88623313 92.18404626 68.7918881 92.18589492 65.69750977 92.18530273 C61.75593912 92.18520162 57.81455069 92.1988007 53.87302303 92.21607494 C50.82472432 92.22726828 47.77646846 92.22921963 44.72815132 92.22869301 C43.27667175 92.22986415 41.82519076 92.23423661 40.37373161 92.24202538 C24.83039673 92.31756217 11.2815601 90.36693719 -0.59765625 79.39453125 C-3.54741379 76.4612069 -3.54741379 76.4612069 -5 75 C-5.76570313 75.87011719 -5.76570313 75.87011719 -6.546875 76.7578125 C-15.71475575 86.60840777 -26.12298753 91.57042474 -39.546875 92.10058594 C-42.49002968 92.18200518 -45.43083133 92.22558891 -48.375 92.25 C-49.33905762 92.25950684 -50.30311523 92.26901367 -51.29638672 92.27880859 C-60.25766189 92.23645704 -60.25766189 92.23645704 -64 90 C-66.14291019 86.78563471 -66.30025791 84.82573391 -66.4609375 81.03515625 C-65.78665193 78.05801405 -64.32680388 76.92501806 -62 75 C-59.50146484 74.50170898 -59.50146484 74.50170898 -56.7109375 74.49609375 C-55.17373047 74.46805664 -55.17373047 74.46805664 -53.60546875 74.43945312 C-52.53941406 74.43880859 -51.47335938 74.43816406 -50.375 74.4375 C-38.89712514 74.38784294 -28.51013072 73.47230791 -20 65 C-16.266111 60.09578758 -13.89240545 55.69158536 -13.84228516 49.44018555 C-13.83202301 48.51880295 -13.82176086 47.59742035 -13.81118774 46.64811707 C-13.80023575 45.1574749 -13.80023575 45.1574749 -13.7890625 43.63671875 C-13.76099223 41.53189329 -13.73232775 39.42707568 -13.703125 37.32226562 C-13.66188078 34.00431553 -13.62499215 30.68651184 -13.59863281 27.3684082 C-13.57098569 24.1658703 -13.52511209 20.96399895 -13.4765625 17.76171875 C-13.47330963 16.77403 -13.47005676 15.78634125 -13.46670532 14.76872253 C-13.37225253 9.46159508 -13.04209967 5.55756255 -10 1 C-6.87057535 -0.56471233 -3.38917777 -0.69701958 0 0 Z " fill="#000000" transform="translate(281,192)"/>
<path d="M0 0 C2.48277331 3.72415997 2.27016501 5.67507344 2.30639648 10.12670898 C2.31472 10.84914291 2.32304352 11.57157684 2.33161926 12.31590271 C2.3557491 14.70935446 2.36449922 17.10253314 2.37109375 19.49609375 C2.38006488 21.16699808 2.38918681 22.8379016 2.39845276 24.50880432 C2.4149583 28.01850329 2.42264447 31.52810678 2.42553711 35.0378418 C2.43089207 39.50640289 2.46844409 43.97404749 2.51428127 48.44235134 C2.54424181 51.89908491 2.55126491 55.3556041 2.55226326 58.81245613 C2.55643577 60.45769465 2.56874898 62.10293559 2.58978081 63.74804497 C2.74084856 76.5984769 1.23001369 87.5567385 -8.12890625 97.2578125 C-17.2895358 105.78733396 -26.43732475 109.64999222 -39.08032227 109.47045898 C-49.48832242 109.00531775 -57.52174439 105.15692432 -65 98 C-70.56716214 91.91091641 -75.04787548 84.63698886 -75.5625 76.25 C-75.38704575 72.7953663 -74.9577509 71.9391116 -72.875 68.9375 C-69.46618264 66.64025352 -68.02516948 66.24528072 -64 67 C-60.78093288 68.60953356 -59.34062128 70.08394617 -58.08203125 73.46875 C-57.78683594 74.4071875 -57.49164063 75.345625 -57.1875 76.3125 C-55.23218253 82.25793685 -52.25121092 85.64587459 -47 89 C-41.18034527 91.78780235 -34.94851525 92.06826269 -28.71875 90.3828125 C-23.26318305 88.01173917 -19.9978003 84.05165657 -17 79 C-15.86046498 75.58139494 -15.86150308 72.9347209 -15.84228516 69.32885742 C-15.83720444 68.65530716 -15.83212372 67.9817569 -15.82688904 67.28779602 C-15.816196 65.82603946 -15.80757164 64.36426664 -15.80076981 62.9024868 C-15.78896313 60.5859719 -15.76950519 58.26964195 -15.74765015 55.95320129 C-15.68609825 49.3672199 -15.63203248 42.78125748 -15.59863281 36.19506836 C-15.57764618 32.16493138 -15.5423106 28.135132 -15.49787521 24.10518837 C-15.48374592 22.57229915 -15.47499972 21.0393502 -15.47182083 19.50639915 C-15.46689238 17.35701745 -15.44368636 15.20852588 -15.41650391 13.05932617 C-15.40841705 11.83815598 -15.4003302 10.61698578 -15.39199829 9.35881042 C-14.95615336 5.62430307 -13.94735314 3.19921776 -12 0 C-7.73550411 -2.84299726 -4.58978756 -1.81859507 0 0 Z " fill="#000000" transform="translate(202,191)"/>
<path d="M0 0 C5.14921079 1.38228421 8.6949419 5.08343707 12.48828125 8.66796875 C13.37257812 9.48523438 14.256875 10.3025 15.16796875 11.14453125 C26.73650229 22.23247289 26.73650229 22.23247289 28.11328125 30.35546875 C27.30239409 34.65317068 26.02191003 36.13297419 22.48828125 38.66796875 C18.4771701 39.24098463 15.88662216 38.81463066 12.48828125 36.66796875 C10.6640625 34.34765625 10.6640625 34.34765625 8.80078125 31.54296875 C4.18680247 24.97493553 -1.26033741 20.24197898 -7.51171875 15.29296875 C-10.1298859 13.16570794 -10.45100379 12.21440343 -10.82421875 8.85546875 C-10.15683249 2.04812892 -6.49781998 -0.39348501 0 0 Z " fill="#000000" transform="translate(229.51171875,201.33203125)"/>
</svg>
